<svg width="963" height="160" viewBox="0 0 963 160" fill="none" xmlns="http://www.w3.org/2000/svg">
<path d="M239.929 61.8267C239.588 58.3892 238.125 55.7187 235.54 53.8153C232.955 51.9119 229.446 50.9602 225.014 50.9602C222.003 50.9602 219.46 51.3864 217.386 52.2386C215.313 53.0625 213.722 54.2131 212.614 55.6903C211.534 57.1676 210.994 58.8438 210.994 60.7188C210.938 62.2812 211.264 63.6449 211.974 64.8097C212.713 65.9744 213.722 66.983 215 67.8352C216.278 68.6591 217.756 69.3835 219.432 70.0085C221.108 70.6051 222.898 71.1165 224.801 71.5426L232.642 73.4176C236.449 74.2699 239.943 75.4062 243.125 76.8267C246.307 78.2472 249.063 79.9943 251.392 82.0682C253.722 84.142 255.526 86.5852 256.804 89.3977C258.111 92.2102 258.778 95.4347 258.807 99.071C258.778 104.412 257.415 109.043 254.716 112.963C252.045 116.855 248.182 119.881 243.125 122.04C238.097 124.17 232.031 125.236 224.929 125.236C217.884 125.236 211.747 124.156 206.52 121.997C201.321 119.838 197.259 116.642 194.332 112.409C191.435 108.148 189.915 102.878 189.773 96.5994H207.628C207.827 99.5256 208.665 101.969 210.142 103.929C211.648 105.861 213.651 107.324 216.151 108.318C218.679 109.284 221.534 109.767 224.716 109.767C227.841 109.767 230.554 109.312 232.855 108.403C235.185 107.494 236.989 106.23 238.267 104.611C239.545 102.991 240.185 101.131 240.185 99.0284C240.185 97.0682 239.602 95.4205 238.438 94.0852C237.301 92.75 235.625 91.6136 233.409 90.6761C231.222 89.7386 228.537 88.8864 225.355 88.1193L215.852 85.733C208.494 83.9432 202.685 81.1449 198.423 77.3381C194.162 73.5312 192.045 68.4034 192.074 61.9545C192.045 56.6705 193.452 52.054 196.293 48.1051C199.162 44.1562 203.097 41.0739 208.097 38.858C213.097 36.642 218.778 35.5341 225.142 35.5341C231.619 35.5341 237.273 36.642 242.102 38.858C246.96 41.0739 250.739 44.1562 253.438 48.1051C256.136 52.054 257.528 56.6278 257.614 61.8267H239.929ZM289.542 125.236C285.366 125.236 281.644 124.511 278.377 123.062C275.11 121.585 272.525 119.412 270.621 116.543C268.746 113.645 267.809 110.037 267.809 105.719C267.809 102.082 268.477 99.0284 269.812 96.5568C271.147 94.0852 272.965 92.0966 275.266 90.5909C277.567 89.0852 280.181 87.9489 283.107 87.1818C286.062 86.4148 289.158 85.875 292.397 85.5625C296.204 85.1648 299.272 84.7955 301.602 84.4545C303.931 84.0852 305.621 83.5455 306.673 82.8352C307.724 82.125 308.249 81.0739 308.249 79.6818V79.4261C308.249 76.7273 307.397 74.6392 305.692 73.1619C304.016 71.6847 301.63 70.946 298.533 70.946C295.266 70.946 292.667 71.6705 290.735 73.1193C288.803 74.5398 287.525 76.3295 286.9 78.4886L270.11 77.125C270.962 73.1477 272.638 69.7102 275.138 66.8125C277.638 63.8864 280.863 61.642 284.812 60.0795C288.789 58.4886 293.391 57.6932 298.619 57.6932C302.255 57.6932 305.735 58.1193 309.059 58.9716C312.411 59.8239 315.38 61.1449 317.965 62.9347C320.579 64.7244 322.638 67.0256 324.144 69.8381C325.65 72.6222 326.403 75.9602 326.403 79.8523V124H309.187V114.923H308.675C307.624 116.969 306.218 118.773 304.457 120.335C302.695 121.869 300.579 123.077 298.107 123.957C295.636 124.81 292.781 125.236 289.542 125.236ZM294.741 112.707C297.411 112.707 299.769 112.182 301.815 111.131C303.86 110.051 305.465 108.602 306.63 106.784C307.795 104.966 308.377 102.906 308.377 100.605V93.6591C307.809 94.0284 307.028 94.3693 306.033 94.6818C305.067 94.9659 303.974 95.2358 302.752 95.4915C301.531 95.7187 300.309 95.9318 299.087 96.1307C297.866 96.3011 296.758 96.4574 295.763 96.5994C293.633 96.9119 291.772 97.4091 290.181 98.0909C288.59 98.7727 287.354 99.696 286.474 100.861C285.593 101.997 285.153 103.418 285.153 105.122C285.153 107.594 286.048 109.483 287.837 110.79C289.656 112.068 291.957 112.707 294.741 112.707ZM375.685 58.5455V72.1818H335.288V58.5455H375.685ZM344.535 124V53.8153C344.535 49.071 345.458 45.1364 347.305 42.0114C349.18 38.8864 351.737 36.5426 354.975 34.9801C358.214 33.4176 361.893 32.6364 366.012 32.6364C368.796 32.6364 371.339 32.8494 373.64 33.2756C375.969 33.7017 377.702 34.0852 378.839 34.4261L375.6 48.0625C374.89 47.8352 374.009 47.6222 372.958 47.4233C371.935 47.2244 370.884 47.125 369.805 47.125C367.134 47.125 365.273 47.75 364.222 49C363.171 50.2216 362.646 51.9403 362.646 54.1562V124H344.535ZM414.261 125.278C407.528 125.278 401.733 123.915 396.875 121.188C392.045 118.432 388.324 114.54 385.71 109.511C383.097 104.455 381.79 98.4744 381.79 91.571C381.79 84.8381 383.097 78.929 385.71 73.8438C388.324 68.7585 392.003 64.7955 396.747 61.9545C401.52 59.1136 407.116 57.6932 413.537 57.6932C417.855 57.6932 421.875 58.3892 425.597 59.7812C429.347 61.1449 432.614 63.2045 435.398 65.9602C438.21 68.7159 440.398 72.1818 441.96 76.358C443.523 80.5057 444.304 85.3636 444.304 90.9318V95.9176H389.034V84.6676H427.216C427.216 82.054 426.648 79.7386 425.511 77.7216C424.375 75.7045 422.798 74.1278 420.781 72.9915C418.793 71.8267 416.477 71.2443 413.835 71.2443C411.08 71.2443 408.636 71.8835 406.506 73.1619C404.403 74.4119 402.756 76.1023 401.562 78.233C400.369 80.3352 399.759 82.679 399.73 85.2642V95.9602C399.73 99.1989 400.327 101.997 401.52 104.355C402.741 106.713 404.46 108.531 406.676 109.81C408.892 111.088 411.52 111.727 414.56 111.727C416.577 111.727 418.423 111.443 420.099 110.875C421.776 110.307 423.21 109.455 424.403 108.318C425.597 107.182 426.506 105.79 427.131 104.142L443.92 105.25C443.068 109.284 441.321 112.807 438.679 115.818C436.065 118.801 432.685 121.131 428.537 122.807C424.418 124.455 419.659 125.278 414.261 125.278Z" fill="#8BCC58"/>
<path d="M456.491 124V36.7273H490.923C497.543 36.7273 503.182 37.9915 507.841 40.5199C512.5 43.0199 516.051 46.5 518.494 50.9602C520.966 55.392 522.202 60.5057 522.202 66.3011C522.202 72.0966 520.952 77.2102 518.452 81.642C515.952 86.0739 512.33 89.5256 507.585 91.9972C502.869 94.4687 497.159 95.7045 490.455 95.7045H468.509V80.9176H487.472C491.023 80.9176 493.949 80.3068 496.25 79.0852C498.58 77.8352 500.313 76.1165 501.449 73.929C502.614 71.7131 503.196 69.1705 503.196 66.3011C503.196 63.4034 502.614 60.875 501.449 58.7159C500.313 56.5284 498.58 54.8381 496.25 53.6449C493.92 52.4233 490.966 51.8125 487.386 51.8125H474.943V124H456.491ZM550.753 125.236C546.577 125.236 542.855 124.511 539.588 123.062C536.321 121.585 533.736 119.412 531.832 116.543C529.957 113.645 529.02 110.037 529.02 105.719C529.02 102.082 529.688 99.0284 531.023 96.5568C532.358 94.0852 534.176 92.0966 536.477 90.5909C538.778 89.0852 541.392 87.9489 544.318 87.1818C547.273 86.4148 550.369 85.875 553.608 85.5625C557.415 85.1648 560.483 84.7955 562.812 84.4545C565.142 84.0852 566.832 83.5455 567.884 82.8352C568.935 82.125 569.46 81.0739 569.46 79.6818V79.4261C569.46 76.7273 568.608 74.6392 566.903 73.1619C565.227 71.6847 562.841 70.946 559.744 70.946C556.477 70.946 553.878 71.6705 551.946 73.1193C550.014 74.5398 548.736 76.3295 548.111 78.4886L531.321 77.125C532.173 73.1477 533.849 69.7102 536.349 66.8125C538.849 63.8864 542.074 61.642 546.023 60.0795C550 58.4886 554.602 57.6932 559.83 57.6932C563.466 57.6932 566.946 58.1193 570.27 58.9716C573.622 59.8239 576.591 61.1449 579.176 62.9347C581.79 64.7244 583.849 67.0256 585.355 69.8381C586.861 72.6222 587.614 75.9602 587.614 79.8523V124H570.398V114.923H569.886C568.835 116.969 567.429 118.773 565.668 120.335C563.906 121.869 561.79 123.077 559.318 123.957C556.847 124.81 553.991 125.236 550.753 125.236ZM555.952 112.707C558.622 112.707 560.98 112.182 563.026 111.131C565.071 110.051 566.676 108.602 567.841 106.784C569.006 104.966 569.588 102.906 569.588 100.605V93.6591C569.02 94.0284 568.239 94.3693 567.244 94.6818C566.278 94.9659 565.185 95.2358 563.963 95.4915C562.741 95.7187 561.52 95.9318 560.298 96.1307C559.077 96.3011 557.969 96.4574 556.974 96.5994C554.844 96.9119 552.983 97.4091 551.392 98.0909C549.801 98.7727 548.565 99.696 547.685 100.861C546.804 101.997 546.364 103.418 546.364 105.122C546.364 107.594 547.259 109.483 549.048 110.79C550.866 112.068 553.168 112.707 555.952 112.707ZM656.158 77.2102L639.538 78.233C639.254 76.8125 638.643 75.5341 637.706 74.3977C636.768 73.233 635.533 72.3097 633.999 71.6278C632.493 70.9176 630.689 70.5625 628.587 70.5625C625.774 70.5625 623.402 71.1591 621.47 72.3523C619.538 73.517 618.572 75.0795 618.572 77.0398C618.572 78.6023 619.197 79.9233 620.447 81.0028C621.697 82.0824 623.842 82.9489 626.882 83.6023L638.729 85.9886C645.092 87.2955 649.837 89.3977 652.962 92.2955C656.087 95.1932 657.649 99 657.649 103.716C657.649 108.006 656.385 111.77 653.857 115.009C651.357 118.247 647.919 120.776 643.544 122.594C639.197 124.384 634.183 125.278 628.501 125.278C619.837 125.278 612.933 123.474 607.791 119.866C602.678 116.23 599.68 111.287 598.8 105.037L616.655 104.099C617.195 106.741 618.501 108.759 620.575 110.151C622.649 111.514 625.305 112.196 628.544 112.196C631.726 112.196 634.283 111.585 636.214 110.364C638.175 109.114 639.169 107.509 639.197 105.548C639.169 103.901 638.473 102.551 637.109 101.5C635.746 100.42 633.643 99.5966 630.803 99.0284L619.467 96.7699C613.075 95.4915 608.317 93.2756 605.192 90.1222C602.095 86.9687 600.547 82.9489 600.547 78.0625C600.547 73.858 601.683 70.2358 603.956 67.196C606.257 64.1562 609.482 61.8125 613.629 60.1648C617.805 58.517 622.692 57.6932 628.288 57.6932C636.555 57.6932 643.061 59.4403 647.805 62.9347C652.578 66.429 655.362 71.1875 656.158 77.2102ZM723.54 77.2102L706.921 78.233C706.637 76.8125 706.026 75.5341 705.089 74.3977C704.151 73.233 702.915 72.3097 701.381 71.6278C699.876 70.9176 698.072 70.5625 695.969 70.5625C693.157 70.5625 690.785 71.1591 688.853 72.3523C686.921 73.517 685.955 75.0795 685.955 77.0398C685.955 78.6023 686.58 79.9233 687.83 81.0028C689.08 82.0824 691.225 82.9489 694.265 83.6023L706.112 85.9886C712.475 87.2955 717.219 89.3977 720.344 92.2955C723.469 95.1932 725.032 99 725.032 103.716C725.032 108.006 723.768 111.77 721.239 115.009C718.739 118.247 715.302 120.776 710.927 122.594C706.58 124.384 701.566 125.278 695.884 125.278C687.219 125.278 680.316 123.474 675.174 119.866C670.06 116.23 667.063 111.287 666.183 105.037L684.038 104.099C684.577 106.741 685.884 108.759 687.958 110.151C690.032 111.514 692.688 112.196 695.927 112.196C699.109 112.196 701.665 111.585 703.597 110.364C705.558 109.114 706.552 107.509 706.58 105.548C706.552 103.901 705.856 102.551 704.492 101.5C703.129 100.42 701.026 99.5966 698.185 99.0284L686.85 96.7699C680.458 95.4915 675.7 93.2756 672.575 90.1222C669.478 86.9687 667.93 82.9489 667.93 78.0625C667.93 73.858 669.066 70.2358 671.339 67.196C673.64 64.1562 676.864 61.8125 681.012 60.1648C685.188 58.517 690.075 57.6932 695.671 57.6932C703.938 57.6932 710.444 59.4403 715.188 62.9347C719.961 66.429 722.745 71.1875 723.54 77.2102ZM736.804 124V36.7273H755.256V75.2074H756.406L787.812 36.7273H809.929L777.543 75.804L810.312 124H788.239L764.332 88.1193L755.256 99.1989V124H736.804ZM844.222 125.278C837.489 125.278 831.694 123.915 826.836 121.188C822.006 118.432 818.285 114.54 815.671 109.511C813.058 104.455 811.751 98.4744 811.751 91.571C811.751 84.8381 813.058 78.929 815.671 73.8438C818.285 68.7585 821.964 64.7955 826.708 61.9545C831.481 59.1136 837.077 57.6932 843.498 57.6932C847.816 57.6932 851.836 58.3892 855.558 59.7812C859.308 61.1449 862.575 63.2045 865.359 65.9602C868.171 68.7159 870.359 72.1818 871.921 76.358C873.484 80.5057 874.265 85.3636 874.265 90.9318V95.9176H818.995V84.6676H857.177C857.177 82.054 856.609 79.7386 855.472 77.7216C854.336 75.7045 852.759 74.1278 850.742 72.9915C848.754 71.8267 846.438 71.2443 843.796 71.2443C841.04 71.2443 838.597 71.8835 836.467 73.1619C834.364 74.4119 832.717 76.1023 831.523 78.233C830.33 80.3352 829.719 82.679 829.691 85.2642V95.9602C829.691 99.1989 830.288 101.997 831.481 104.355C832.702 106.713 834.421 108.531 836.637 109.81C838.853 111.088 841.481 111.727 844.521 111.727C846.538 111.727 848.384 111.443 850.06 110.875C851.737 110.307 853.171 109.455 854.364 108.318C855.558 107.182 856.467 105.79 857.092 104.142L873.881 105.25C873.029 109.284 871.282 112.807 868.64 115.818C866.026 118.801 862.646 121.131 858.498 122.807C854.379 124.455 849.62 125.278 844.222 125.278ZM895.561 148.545C893.26 148.545 891.101 148.361 889.084 147.991C887.095 147.651 885.447 147.21 884.141 146.67L888.232 133.119C890.362 133.773 892.28 134.128 893.984 134.185C895.717 134.241 897.209 133.844 898.459 132.991C899.737 132.139 900.774 130.69 901.57 128.645L902.635 125.875L879.155 58.5455H898.246L911.797 106.614H912.479L926.158 58.5455H945.376L919.936 131.074C918.714 134.597 917.053 137.665 914.95 140.278C912.876 142.92 910.249 144.952 907.067 146.372C903.885 147.821 900.05 148.545 895.561 148.545Z" fill="#FFF8F8"/>
<path d="M123.409 0H43.4092C21.3178 0 3.40918 17.9086 3.40918 40.0001V120C3.40918 142.092 21.3178 160 43.4092 160H123.409C145.501 160 163.409 142.092 163.409 120V40.0001C163.409 17.9086 145.501 0 123.409 0Z" fill="white"/>
<g filter="url(#filter0_d_5783_1413)">
<rect x="12.4844" y="90.4512" width="47.4728" height="30.1819" transform="rotate(-37.6696 12.4844 90.4512)" fill="#B6E7A4"/>
<path d="M126.089 39.9249L114.774 49.4503L69.4206 86.0156L59.2583 72.8263L50.2763 60.7025L27.2731 79.2482L36.2551 91.372L54.9675 116.63L63.5176 128.698L75.2639 119.228L132.364 73.1926L144.11 63.7224L126.089 39.9249Z" fill="white"/>
</g>
<path d="M123.405 0H43.4053C21.3139 0 3.40527 17.9086 3.40527 40.0001V120C3.40527 142.092 21.3139 160 43.4053 160H123.405C145.497 160 163.405 142.092 163.405 120V40.0001C163.405 17.9086 145.497 0 123.405 0Z" fill="white"/>
<g filter="url(#filter1_d_5783_1413)">
<rect x="4.35449" y="80.0176" width="57.0217" height="30.1819" transform="rotate(-38.2037 4.35449 80.0176)" fill="#645D5D"/>
<path d="M143.197 47.6041L131.883 57.1295L86.529 93.6948L76.3667 80.5055L67.3847 68.3817L44.3815 86.9274L53.3635 99.0512L72.0759 124.309L80.626 136.377L92.3723 126.907L149.472 80.8718L161.219 71.4016L143.197 47.6041Z" fill="white"/>
</g>
<path d="M123.408 0H43.4082C21.3168 0 3.4082 17.9086 3.4082 40.0001V120C3.4082 142.092 21.3168 160 43.4082 160H123.408C145.5 160 163.408 142.092 163.408 120V40.0001C163.408 17.9086 145.5 0 123.408 0Z" fill="white"/>
<g filter="url(#filter2_d_5783_1413)">
<rect x="12.4834" y="90.4512" width="47.4728" height="30.1819" transform="rotate(-37.6696 12.4834 90.4512)" fill="#B6E7A4"/>
<path d="M126.088 39.9249L114.773 49.4503L69.4196 86.0156L59.2573 72.8263L50.2754 60.7025L27.2722 79.2482L36.2541 91.372L54.9665 116.63L63.5166 128.698L75.2629 119.228L132.363 73.1926L144.109 63.7224L126.088 39.9249Z" fill="white"/>
</g>
<path d="M123.405 0H43.4053C21.3139 0 3.40527 17.9086 3.40527 40.0001V120C3.40527 142.092 21.3139 160 43.4053 160H123.405C145.497 160 163.405 142.092 163.405 120V40.0001C163.405 17.9086 145.497 0 123.405 0Z" fill="white"/>
<path d="M39.1735 67.2487C38.553 66.7979 38.1754 66.2334 38.0406 65.5554C37.9059 64.8774 38.1062 64.1796 38.6416 63.4619C44.1375 55.7982 51.0304 49.8476 59.3204 45.61C67.6103 41.3725 76.4516 39.2537 85.8442 39.2537C95.2404 39.2537 104.105 41.3057 112.437 45.4099C120.77 49.514 127.728 55.4412 133.313 63.1914C133.933 64.0029 134.134 64.7242 133.914 65.3553C133.694 65.9864 133.316 66.5274 132.781 66.9782C132.249 67.429 131.629 67.6327 130.919 67.5895C130.21 67.5462 129.59 67.1621 129.058 66.4372C124.182 59.4047 117.912 54.0184 110.246 50.2786C102.58 46.5387 94.4462 44.6669 85.8442 44.6633C77.2458 44.6633 69.1793 46.5351 61.6446 50.2786C54.1099 54.022 47.8605 59.4083 42.8965 66.4372C42.3647 67.2487 41.7442 67.6995 41.035 67.7896C40.3259 67.8798 39.7054 67.6995 39.1735 67.2487ZM100.869 133.923C91.6504 131.579 84.1157 126.912 78.2652 119.923C72.4148 112.933 69.4895 104.391 69.4895 94.297C69.4895 89.7889 71.0851 86.0021 74.2763 82.9367C77.4674 79.8712 81.3234 78.3385 85.8442 78.3385C90.365 78.3385 94.221 79.8712 97.4122 82.9367C100.603 86.0021 102.199 89.7889 102.199 94.297C102.199 97.2723 103.307 99.7751 105.523 101.806C107.739 103.836 110.354 104.849 113.368 104.846C116.382 104.846 118.953 103.831 121.08 101.8C123.207 99.7697 124.271 97.2687 124.271 94.297C124.271 83.8383 120.504 75.0476 112.969 67.9249C105.434 60.8021 96.4371 57.2408 85.9772 57.2408C75.5173 57.2408 66.52 60.8021 58.9853 67.9249C51.4506 75.0476 47.6833 83.7932 47.6833 94.1617C47.6833 96.3256 47.8836 99.0304 48.2843 102.276C48.6849 105.522 49.637 109.309 51.1403 113.637C51.4063 114.448 51.385 115.169 51.0765 115.8C50.768 116.431 50.2575 116.882 49.5448 117.153C48.8356 117.423 48.1477 117.4 47.4812 117.082C46.8146 116.765 46.3501 116.248 46.0877 115.53C44.758 112.014 43.806 108.519 43.2316 105.046C42.6572 101.573 42.3682 97.99 42.3647 94.297C42.3647 82.3055 46.6426 72.2526 55.1984 64.1381C63.7543 56.0236 73.9696 51.9664 85.8442 51.9664C97.8111 51.9664 108.094 56.0236 116.692 64.1381C125.291 72.2526 129.59 82.3055 129.59 94.297C129.59 98.805 128.017 102.568 124.872 105.587C121.727 108.606 117.892 110.117 113.368 110.12C108.847 110.12 104.968 108.609 101.731 105.587C98.4936 102.565 96.8768 98.8014 96.8803 94.297C96.8803 91.3216 95.7953 88.8188 93.6253 86.7884C91.4553 84.7579 88.8616 83.7445 85.8442 83.7481C82.8303 83.7481 80.2366 84.7633 78.0631 86.7938C75.8896 88.8242 74.8046 91.3253 74.8081 94.297C74.8081 103.043 77.3575 110.346 82.4563 116.206C87.555 122.067 94.1359 126.169 102.199 128.513C102.997 128.784 103.529 129.234 103.794 129.865C104.06 130.497 104.105 131.173 103.927 131.894C103.75 132.525 103.396 133.066 102.864 133.517C102.332 133.968 101.667 134.103 100.869 133.923ZM56.4589 38.9832C55.7498 39.434 55.0407 39.5476 54.3315 39.324C53.6224 39.1004 53.0905 38.6261 52.7359 37.9013C52.3814 37.18 52.2927 36.5272 52.47 35.943C52.6473 35.3587 53.0905 34.8394 53.7996 34.385C58.7637 31.6801 63.9493 29.6064 69.3566 28.1639C74.7638 26.7213 80.2597 26 85.8442 26C91.5174 26 97.0576 26.6996 102.465 28.0989C107.872 29.4982 113.102 31.5034 118.155 34.1145C118.953 34.5653 119.419 35.1063 119.554 35.7374C119.688 36.3685 119.621 36.9996 119.351 37.6308C119.085 38.2619 118.642 38.7578 118.022 39.1184C117.401 39.4791 116.648 39.434 115.761 38.9832C111.063 36.5488 106.209 34.6771 101.199 33.368C96.1889 32.0588 91.0706 31.4061 85.8442 31.4097C80.7029 31.4097 75.6502 32.0191 70.6862 33.2381C65.7222 34.4571 60.9798 36.3721 56.4589 38.9832ZM72.1488 132.029C66.9189 126.439 62.9069 120.736 60.1128 114.919C57.3188 109.101 55.9235 102.228 55.9271 94.297C55.9271 86.0923 58.8523 79.1716 64.7028 73.5347C70.5532 67.8978 77.6004 65.0812 85.8442 65.0848C94.088 65.0848 101.18 67.9032 107.119 73.5401C113.058 79.177 116.027 86.0959 116.027 94.297C116.027 95.1084 115.783 95.763 115.293 96.2607C114.804 96.7584 114.162 97.0054 113.368 97.0018C112.659 97.0018 112.038 96.7529 111.506 96.2553C110.975 95.7576 110.709 95.1048 110.709 94.297C110.709 87.5349 108.248 81.8764 103.326 77.3214C98.405 72.7665 92.5776 70.4909 85.8442 70.4945C79.1073 70.4945 73.3225 72.7719 68.4896 77.3269C63.6568 81.8818 61.2421 87.5385 61.2457 94.297C61.2457 101.6 62.4867 107.799 64.9687 112.895C67.4507 117.991 71.0851 123.107 75.8718 128.243C76.4037 128.784 76.6696 129.415 76.6696 130.136C76.6696 130.857 76.4037 131.488 75.8718 132.029C75.34 132.57 74.7195 132.841 74.0103 132.841C73.3012 132.841 72.6807 132.57 72.1488 132.029ZM112.304 122.833C104.415 122.833 97.5664 120.128 91.7585 114.718C85.9506 109.309 83.0484 102.502 83.052 94.297C83.052 93.5757 83.2966 92.9445 83.7859 92.4036C84.2752 91.8626 84.917 91.5921 85.7113 91.5921C86.509 91.5921 87.1526 91.8626 87.6419 92.4036C88.1312 92.9445 88.3741 93.5757 88.3706 94.297C88.3706 101.059 90.7639 106.604 95.5507 110.932C100.337 115.259 105.922 117.423 112.304 117.423C112.836 117.423 113.59 117.378 114.565 117.288C115.54 117.198 116.559 117.063 117.623 116.882C118.421 116.702 119.109 116.816 119.686 117.223C120.264 117.631 120.64 118.238 120.814 119.046C120.991 119.767 120.858 120.399 120.415 120.94C119.972 121.481 119.396 121.841 118.687 122.021C117.091 122.472 115.696 122.721 114.501 122.768C113.306 122.815 112.574 122.837 112.304 122.833Z" fill="#645D5D"/>
<defs>
<filter id="filter0_d_5783_1413" x="8.48438" y="39.9248" width="139.626" height="96.7734" filterUnits="userSpaceOnUse" color-interpolation-filters="sRGB">
<feFlood flood-opacity="0" result="BackgroundImageFix"/>
<feColorMatrix in="SourceAlpha" type="matrix" values="0 0 0 0 0 0 0 0 0 0 0 0 0 0 0 0 0 0 127 0" result="hardAlpha"/>
<feOffset dy="4"/>
<feGaussianBlur stdDeviation="2"/>
<feComposite in2="hardAlpha" operator="out"/>
<feColorMatrix type="matrix" values="0 0 0 0 0 0 0 0 0 0 0 0 0 0 0 0 0 0 0.25 0"/>
<feBlend mode="normal" in2="BackgroundImageFix" result="effect1_dropShadow_5783_1413"/>
<feBlend mode="normal" in="SourceGraphic" in2="effect1_dropShadow_5783_1413" result="shape"/>
</filter>
<filter id="filter1_d_5783_1413" x="0.354492" y="44.752" width="164.864" height="99.6255" filterUnits="userSpaceOnUse" color-interpolation-filters="sRGB">
<feFlood flood-opacity="0" result="BackgroundImageFix"/>
<feColorMatrix in="SourceAlpha" type="matrix" values="0 0 0 0 0 0 0 0 0 0 0 0 0 0 0 0 0 0 127 0" result="hardAlpha"/>
<feOffset dy="4"/>
<feGaussianBlur stdDeviation="2"/>
<feComposite in2="hardAlpha" operator="out"/>
<feColorMatrix type="matrix" values="0 0 0 0 0 0 0 0 0 0 0 0 0 0 0 0 0 0 0.25 0"/>
<feBlend mode="normal" in2="BackgroundImageFix" result="effect1_dropShadow_5783_1413"/>
<feBlend mode="normal" in="SourceGraphic" in2="effect1_dropShadow_5783_1413" result="shape"/>
</filter>
<filter id="filter2_d_5783_1413" x="8.4834" y="39.9248" width="139.626" height="96.7734" filterUnits="userSpaceOnUse" color-interpolation-filters="sRGB">
<feFlood flood-opacity="0" result="BackgroundImageFix"/>
<feColorMatrix in="SourceAlpha" type="matrix" values="0 0 0 0 0 0 0 0 0 0 0 0 0 0 0 0 0 0 127 0" result="hardAlpha"/>
<feOffset dy="4"/>
<feGaussianBlur stdDeviation="2"/>
<feComposite in2="hardAlpha" operator="out"/>
<feColorMatrix type="matrix" values="0 0 0 0 0 0 0 0 0 0 0 0 0 0 0 0 0 0 0.25 0"/>
<feBlend mode="normal" in2="BackgroundImageFix" result="effect1_dropShadow_5783_1413"/>
<feBlend mode="normal" in="SourceGraphic" in2="effect1_dropShadow_5783_1413" result="shape"/>
</filter>
</defs>
</svg>
